<svg width="20" height="16" viewBox="0 0 20 16" fill="none" xmlns="http://www.w3.org/2000/svg">
<path d="M20 -3.13001e-06C17.3736 -3.15506e-06 14.7728 0.413849 12.3463 1.21792C9.91981 2.022 7.71503 3.20055 5.85786 4.68629C4.00068 6.17203 2.5275 7.93585 1.5224 9.87706C0.517308 11.8183 -6.972e-06 13.8988 -6.57542e-06 16L3.27999 16C3.27999 14.2434 3.71247 12.5041 4.55273 10.8812C5.39298 9.25837 6.62457 7.78381 8.17717 6.54174C9.72976 5.29966 11.573 4.31439 13.6015 3.64218C15.6301 2.96998 17.8043 2.624 20 2.624V-3.13001e-06Z" fill="#303030"/>
</svg>
